<svg width="516px" height="151px" viewBox="0 0 516 151" version="1.1" xmlns="http://www.w3.org/2000/svg" xmlns:xlink="http://www.w3.org/1999/xlink">
    <defs>
        <path d="M120.659439,12.2429591 L121.311271,14.8612286 L1.30382603,44.7825215 L125,44.7826501 L125,118.996709 C125,127.089072 118.501302,133.668872 110.420896,133.836255 L110.105285,133.839521 L44.0370691,133.839521 L1.34784013,151 L1.10982603,44.8305215 L1.09563375,44.8348736 L0.442760813,42.2163433 C-1.54038392,34.2623842 3.32246498,26.2011482 11.3042378,24.2110687 L102.616359,1.4443999 C110.598132,-0.545679587 118.676294,4.28900006 120.659439,12.2429591 Z M51.5419743,64.0108381 L51.5419743,108.539274 L84.7165666,86.2750559 L51.5419743,64.0108381 Z" id="path-1"></path>
    </defs>
    <g id="Page-1" stroke="none" stroke-width="1" fill="none" fill-rule="evenodd">
        <g id="A3-Copy-3" transform="translate(-66.000000, -493.000000)">
            <g id="Group-4-Copy" transform="translate(66.000000, 492.000000)">
                <g id="Group">
                    <g id="Group-3-Copy-5">
                        <mask id="mask-2" fill="white">
                            <use xlink:href="#path-1"></use>
                        </mask>
                        <path stroke="#979797" d="M120.705332,14.4969995 L120.826081,14.9820193 L121.19031,14.3760808 L120.705332,14.4969995 Z M124.5,45.2826496 L124.999999,45.2826501 L124.5,44.7826501 L124.5,45.2826496 Z M1.8461842,150.260786 L1.16135074,150.53608 L1.84783888,150.998879 L1.8461842,150.260786 Z M120.174269,12.363835 L120.174248,12.3637499 L120.174269,12.363835 Z M51.0419743,63.0731129 L85.6138154,86.2750559 L51.0419743,109.476999 L51.0419743,63.0731129 Z"></path>
                        <g id="Group-3" mask="url(#mask-2)" fill="#929292" stroke="#979797">
                            <g transform="translate(59.898904, 21.739621) rotate(-14.000000) translate(-59.898904, -21.739621) translate(-2.101096, 12.739621)">
                                <rect id="Rectangle" x="105.995112" y="0.5" width="16.5825187" height="16.6053812"></rect>
                                <rect id="Rectangle-Copy-3" x="70.8300748" y="0.5" width="16.5825187" height="16.6053812"></rect>
                                <rect id="Rectangle-Copy-4" x="35.6650374" y="0.5" width="16.5825187" height="16.6053812"></rect>
                                <rect id="Rectangle-Copy-5" x="0.5" y="0.5" width="16.5825187" height="16.6053812"></rect>
                            </g>
                        </g>
                    </g>
                    <path d="M219.16,106.420058 C215.713316,110.380078 211.460025,113.515047 206.4,115.825058 C201.339975,118.13507 195.510033,119.290058 188.91,119.290058 C182.896637,119.290058 177.341692,118.300068 172.245,116.320058 C167.148308,114.340048 162.730019,111.535076 158.99,107.905058 C155.249981,104.27504 152.316677,99.9300836 150.19,94.8700583 C148.063323,89.810033 147,84.2367554 147,78.1500583 C147,71.9166938 148.081656,66.2700836 150.245,61.2100583 C152.408344,56.150033 155.396648,51.8417428 159.21,48.2850583 C163.023352,44.7283739 167.496641,41.9967345 172.63,40.0900583 C177.763359,38.1833821 183.29997,37.2300583 189.24,37.2300583 C194.740028,37.2300583 200.148307,38.2017153 205.465,40.1450583 C210.781693,42.0884014 215.089984,44.9300396 218.39,48.6700583 C228.065632,61.1000583 213.556075,70.9055302 205.63,61.4300583 C203.869991,59.0100462 201.560014,57.2133975 198.7,56.0400583 C195.839986,54.8667191 192.906682,54.2800583 189.9,54.2800583 C186.599983,54.2800583 183.575014,54.8850523 180.825,56.0950583 C178.074986,57.3050644 175.71001,58.973381 173.73,61.1000583 C171.74999,63.2267356 170.210005,65.7383772 169.11,68.6350583 C168.009994,71.5317395 167.46,74.7033744 167.46,78.1500583 C167.46,81.6700759 168.009994,84.8967103 169.11,87.8300583 C170.210005,90.7634063 171.731657,93.2750479 173.675,95.3650583 C175.618343,97.4550688 177.946653,99.0867191 180.66,100.260058 C183.373347,101.433398 186.343317,102.020058 189.57,102.020058 C193.310019,102.020058 196.573319,101.286732 199.36,99.8200583 C202.146681,98.3533843 204.383325,96.4467367 206.07,94.1000583 C214.368121,83.0251721 228.784945,96.4467367 219.16,106.420058 Z M228.42,110.016224 L228.42,40.9998865 C228.42,29.0000378 246.68,29.0000378 246.68,40.9998865 L246.68,110.016224 C246.68,121.994592 228.42,121.994592 228.42,110.016224 Z M278.56,44.9300583 C278.56,46.3233986 278.285003,47.6250523 277.735,48.8350583 C277.184997,50.0450644 276.451671,51.0900539 275.535,51.9700583 C274.618329,52.8500627 273.51834,53.5467224 272.235,54.0600583 C270.95166,54.5733942 269.61334,54.8300583 268.22,54.8300583 C265.286652,54.8300583 262.83001,53.8584014 260.85,51.9150583 C258.86999,49.9717153 257.88,47.6434052 257.88,44.9300583 C257.88,43.6100517 258.136664,42.3450644 258.65,41.1350583 C259.163336,39.9250523 259.896662,38.8800627 260.85,38.0000583 C261.803338,37.1200539 262.903327,36.4050611 264.15,35.8550583 C265.396673,35.3050556 266.753326,35.0300583 268.22,35.0300583 C269.61334,35.0300583 270.95166,35.2867224 272.235,35.8000583 C273.51834,36.3133942 274.618329,37.0100539 275.535,37.8900583 C276.451671,38.7700627 277.184997,39.8150523 277.735,41.0250583 C278.285003,42.2350644 278.56,43.536718 278.56,44.9300583 Z M259.2,110.041061 L259.2,71.0541357 C259.2,58.4419274 277.24,58.4419274 277.24,71.0541357 L277.24,110.041061 C277.24,122.779619 259.2,122.779619 259.2,110.041061 Z M352.48,89.5900583 C352.48,93.4034107 351.893339,97.0700407 350.72,100.590058 C349.546661,104.110076 347.841678,107.208378 345.605,109.885058 C343.368322,112.561738 340.636683,114.706717 337.41,116.320058 C334.183317,117.9334 330.516687,118.740058 326.41,118.740058 C323.03665,118.740058 319.846682,118.061732 316.84,116.705058 C313.833318,115.348385 311.486675,113.496737 309.8,111.150058 L309.58,111.150058 L309.58,143.600058 C309.8,154.65911 291.54,154.65911 291.54,143.600058 L291.54,69.1300583 C291.54,59.0046499 308.7,59.0046499 308.7,69.1300583 L309.03,69.1300583 C310.716675,66.9300473 313.044985,65.0050666 316.015,63.3550583 C318.985015,61.7050501 322.486647,60.8800583 326.52,60.8800583 C330.48002,60.8800583 334.073317,61.6500506 337.3,63.1900583 C340.526683,64.730066 343.258322,66.8200451 345.495,69.4600583 C347.731678,72.1000715 349.454994,75.1617076 350.665,78.6450583 C351.875006,82.1284091 352.48,85.7767059 352.48,89.5900583 Z M334.99,89.5900583 C334.99,87.8300495 334.715003,86.1067334 334.165,84.4200583 C333.614997,82.7333832 332.808339,81.2483981 331.745,79.9650583 C330.681661,78.6817186 329.343341,77.636729 327.73,76.8300583 C326.116659,76.0233876 324.246677,75.6200583 322.12,75.6200583 C320.066656,75.6200583 318.233341,76.0233876 316.62,76.8300583 C315.006659,77.636729 313.631672,78.7000517 312.495,80.0200583 C311.358328,81.3400649 310.478336,82.8433832 309.855,84.5300583 C309.231664,86.2167334 308.92,87.9400495 308.92,89.7000583 C308.92,91.4600671 309.231664,93.1833832 309.855,94.8700583 C310.478336,96.5567334 311.358328,98.0600517 312.495,99.3800583 C313.631672,100.700065 315.006659,101.763388 316.62,102.570058 C318.233341,103.376729 320.066656,103.780058 322.12,103.780058 C324.246677,103.780058 326.116659,103.376729 327.73,102.570058 C329.343341,101.763388 330.681661,100.700065 331.745,99.3800583 C332.808339,98.0600517 333.614997,96.5384003 334.165,94.8150583 C334.715003,93.0917164 334.99,91.3500671 334.99,89.5900583 Z M393.436841,76.461936 C391.770258,75.3151884 390.555578,74.4431978 388.45081,73.8113387 C386.346043,73.1794795 384.207228,73.0356309 382.034303,73.3797884 C380.368394,73.6436426 378.880884,74.2133511 377.57173,75.088931 C376.262576,75.964511 375.734198,77.1990217 375.98658,78.7925002 C376.227491,80.3135478 377.178187,81.2766729 378.838697,81.6819042 C380.499207,82.0871355 383.130859,82.4127899 386.73373,82.6588771 C388.830625,82.7722484 390.974276,83.0638245 393.164746,83.5336141 C395.355216,84.0034037 397.386622,84.7582376 399.259026,85.7981386 C401.13143,86.8380396 402.723759,88.2192669 404.03606,89.9418619 C405.348362,91.6644569 406.210994,93.8294771 406.623983,96.4369873 C407.163164,99.8412368 406.931083,102.829301 405.927734,105.40127 C404.924386,107.973239 403.432883,110.158445 401.45318,111.956956 C399.473478,113.755466 397.159099,115.198605 394.509975,116.286415 C391.86085,117.374226 389.160142,118.136086 386.40777,118.572019 C381.989489,119.271806 377.549962,119.251053 373.089055,118.509758 C368.628148,117.768464 364.767385,116.245356 361.50665,113.940389 C354.341146,109.45105 361.664245,96.6528982 369.8329,101.818638 C371.701704,103.304596 373.886743,104.443454 376.38808,105.235246 C378.889418,106.027038 381.443803,106.216437 384.051314,105.803448 C385.49993,105.574009 386.875927,105.003401 388.179345,104.091605 C389.482764,103.17981 389.996802,101.854762 389.721476,100.116422 C389.457622,98.4505127 388.393445,97.3568678 386.528914,96.8354546 C384.826516,96.3593817 382.304216,95.9822307 378.961951,95.7039926 L377.984706,95.6271874 C376.032672,95.4908723 374.057725,95.2096996 372.059804,94.7836611 C370.061883,94.3576226 368.223022,93.646539 366.543168,92.650389 C364.863313,91.654239 363.409208,90.325366 362.180809,88.6637299 C360.95241,87.0020938 360.137464,84.9037675 359.735947,82.3686881 C359.219711,79.1093003 359.468999,76.2298806 360.48382,73.7303427 C361.49864,71.2308048 362.977772,69.0846808 364.921259,67.2919065 C366.864745,65.4991321 369.103827,64.0493577 371.638569,62.9425397 C374.173311,61.8357217 376.744399,61.0758296 379.351909,60.6628405 C383.408037,60.0204131 387.473943,60.0260954 391.549752,60.6798875 C395.62556,61.3336795 398.533173,62.6985647 401.614631,64.8091831 C409.011744,69.9857519 401.565696,82.0794641 393.436841,76.461936 Z M485.26,60.6600583 C489.440021,60.6600583 493.363315,61.3200517 497.03,62.6400583 C500.696685,63.9600649 503.923319,65.8667125 506.71,68.3600583 C509.496681,70.8534041 511.696659,73.896707 513.31,77.4900583 C514.923341,81.0834096 515.73,85.1167026 515.73,89.5900583 C515.73,94.063414 514.923341,98.1150402 513.31,101.745058 C511.696659,105.375076 509.496681,108.455046 506.71,110.985058 C503.923319,113.515071 500.696685,115.476718 497.03,116.870058 C493.363315,118.263399 489.440021,118.960058 485.26,118.960058 C481.153313,118.960058 477.248352,118.263399 473.545,116.870058 C469.841648,115.476718 466.615014,113.515071 463.865,110.985058 C461.114986,108.455046 458.933341,105.375076 457.32,101.745058 C455.706659,98.1150402 454.9,94.063414 454.9,89.5900583 C454.9,85.1167026 455.706659,81.0834096 457.32,77.4900583 C458.933341,73.896707 461.114986,70.8534041 463.865,68.3600583 C466.615014,65.8667125 469.841648,63.9600649 473.545,62.6400583 C477.248352,61.3200517 481.153313,60.6600583 485.26,60.6600583 Z M438.31,48.0100583 L438.31,62.4200583 L445.9,62.4200583 C454.764671,62.4200583 454.764671,75.9500583 445.9,75.9500583 L438.31,75.9500583 L438.31,96.8500583 C438.31,99.4167378 438.804995,101.341719 439.795,102.625058 C440.785005,103.908398 442.56332,104.550058 445.13,104.550058 C446.010004,104.550058 446.944995,104.476726 447.935,104.330058 C448.925005,104.183391 449.749997,103.963393 450.41,103.670058 C456.510333,100.841039 460.279854,113.185058 450.63,116.870058 C449.383327,117.310061 447.806676,117.695057 445.9,118.025058 C443.993324,118.35506 442.086676,118.520058 440.18,118.520058 C436.513315,118.520058 433.433346,118.06173 430.94,117.145058 C428.446654,116.228387 426.448341,114.9084 424.945,113.185058 C423.441659,111.461716 422.360003,109.408404 421.7,107.025058 C421.039997,104.641713 420.71,101.983406 420.71,99.0500583 L420.71,75.9500583 L415.757748,75.9500583 C407.599079,75.9500583 407.599079,62.4200583 415.757748,62.4200583 L420.6,62.4200583 L420.6,48.0100583 C420.6,37.9427945 438.31,37.9427945 438.31,48.0100583 Z M485.26,75.6200583 C483.133323,75.6200583 481.263341,76.0233876 479.65,76.8300583 C478.036659,77.636729 476.698339,78.6817186 475.635,79.9650583 C474.571661,81.2483981 473.765003,82.7333832 473.215,84.4200583 C472.664997,86.1067334 472.39,87.8300495 472.39,89.5900583 C472.39,91.3500671 472.664997,93.0733832 473.215,94.7600583 C473.765003,96.4467334 474.589994,97.9683849 475.69,99.3250583 C476.790005,100.681732 478.146659,101.763388 479.76,102.570058 C481.373341,103.376729 483.243323,103.780058 485.37,103.780058 C487.496677,103.780058 489.366659,103.376729 490.98,102.570058 C492.593341,101.763388 493.949994,100.681732 495.05,99.3250583 C496.150005,97.9683849 496.974997,96.4467334 497.525,94.7600583 C498.075003,93.0733832 498.35,91.3500671 498.35,89.5900583 C498.35,87.8300495 498.05667,86.1067334 497.47,84.4200583 C496.88333,82.7333832 496.040005,81.2483981 494.94,79.9650583 C493.839994,78.6817186 492.483341,77.636729 490.87,76.8300583 C489.256659,76.0233876 487.386677,75.6200583 485.26,75.6200583 Z" id="Clipsto" fill="#FCFCFD" fill-rule="nonzero"></path>
                </g>
            </g>
        </g>
    </g>
</svg>